PathFileType	4	(X/Y/Z)	\\147.46.242.158\로컬 디스크 (e)\MOCAP Data\Iguana Capture\iguana\Project 2\Capture day 7\Session 2\Take08.trc
DataRate	CameraRate	NumFrames	NumMarkers	Units	OrigDataRate	OrigDataStartFrame	OrigNumFrames
120.0	120.0	16	23	mm	120.0	195	29130
Frame#	Time	ana:head1			ana:head2			ana:bone1			ana:bone2			ana:bone3			ana:tail1			ana:tail2			ana:tail3			ana:tail4			ana:Rforefoot1			ana:Rforefoot2			ana:Rforefoot3			ana:Lforefoot1			ana:Lforefoot2			ana:Lforefoot3			ana:RhindLeg1			ana:RhindLeg2			ana:RhindLeg3			ana:RhindLeg4			ana:LhindLeg1			ana:LhindLeg2			ana:LhindLeg3			ana:LhindLeg4			
		X1	Y1	Z1	X2	Y2	Z2	X3	Y3	Z3	X4	Y4	Z4	X5	Y5	Z5	X6	Y6	Z6	X7	Y7	Z7	X8	Y8	Z8	X9	Y9	Z9	X10	Y10	Z10	X11	Y11	Z11	X12	Y12	Z12	X13	Y13	Z13	X14	Y14	Z14	X15	Y15	Z15	X16	Y16	Z16	X17	Y17	Z17	X18	Y18	Z18	X19	Y19	Z19	X20	Y20	Z20	X21	Y21	Z21	X22	Y22	Z22	X23	Y23	Z23	

1696	14.125	138.28250	142.25293	50.90786	145.19452	150.77753	51.65732	160.08676	167.19301	41.12685	176.97206	188.81506	35.89835	199.65317	213.35078	28.87574	218.50970	239.22238	23.04816	242.30429	266.30484	16.12991	274.18185	296.69470	8.06423	306.10522	320.51105	4.37333	148.17200	171.11423	26.06787	148.28238	186.40030	25.28295	145.71477	192.04868	8.04381	168.02618	156.01590	25.20816	179.75699	153.38554	18.22788	173.30458	149.10553	2.95480	191.70454	220.22426	22.06767	175.19090	228.75052	17.25072	183.06943	240.46382	3.13918	175.09058	231.92023	2.44217	208.06404	208.77380	22.19768	224.08249	200.59769	18.49208	241.76328	216.22681	13.32780	249.24371	219.32388	5.64762	
1697	14.133	137.29341	140.12289	51.33545	144.23340	148.62679	52.02270	158.78146	165.37854	41.41153	174.93404	187.61646	35.68577	197.40132	212.11708	28.12764	216.67847	237.60533	21.84577	240.49086	264.45163	14.48599	272.27734	294.89536	6.98743	304.28839	318.80630	4.37368	146.42502	168.27817	26.91920	145.26138	183.51106	27.09445	139.40332	187.57013	10.21926	167.26900	154.53528	25.48539	179.25371	152.78166	18.54877	173.27951	149.07930	2.97420	189.69008	219.14111	21.22503	174.05533	228.96968	16.45939	183.28033	240.21001	3.15933	174.96565	231.82100	2.37395	205.67068	207.40884	21.61345	221.62120	198.99310	18.47749	239.40054	214.24275	13.00598	247.36360	216.68140	5.64172	
1698	14.142	136.36630	138.18520	51.67949	143.34186	146.63928	52.28931	157.59183	163.70680	41.60186	173.07564	186.48126	35.53449	195.30705	211.00935	27.64253	215.00882	236.12747	20.96901	238.80212	262.76331	13.28787	270.50659	293.24646	6.30112	302.57709	317.24911	4.40989	144.93718	165.65384	27.62356	142.59666	180.72388	28.57731	133.77882	182.75940	12.62276	166.57326	153.19489	25.75078	178.74271	152.20949	18.88807	173.22232	149.04680	3.02883	187.85242	218.12221	20.57869	173.13577	229.18405	15.82498	183.45308	239.94778	3.28552	174.80537	231.78445	2.43815	203.41907	206.14091	21.25016	219.23360	197.39380	18.82892	236.99646	212.38315	12.89326	245.40990	213.87646	5.88364	
1699	14.150	135.54929	136.39609	51.92941	142.59322	144.82344	52.45110	156.52295	162.13435	41.71947	171.38670	185.37306	35.40894	193.42134	209.93910	27.35531	213.51337	234.69556	20.45257	237.28651	261.20691	12.60271	268.88428	291.80087	5.98026	300.95486	315.89621	4.45987	143.68265	163.26372	28.13771	140.24728	178.06586	29.61478	129.24843	177.74065	14.80925	165.92491	151.96715	25.97639	178.22661	151.68584	19.20681	173.13672	148.99046	3.09620	186.20140	217.12704	20.11578	172.46738	229.34973	15.33893	183.59354	239.74348	3.53478	174.59271	231.76524	2.53620	201.36588	204.95804	21.11809	216.85670	195.64493	19.49334	234.41542	210.52913	12.89616	243.18811	210.81549	6.33387	
1700	14.158	134.76788	134.75012	52.07371	141.89415	143.18886	52.53112	155.54372	160.66576	41.77919	169.83934	184.27930	35.35196	191.73036	208.92458	27.27665	212.22710	233.32373	20.26968	235.97247	259.75934	12.37599	267.40332	290.52078	5.95008	299.40787	314.74374	4.48749	142.58405	161.11478	28.49845	138.14990	175.56261	30.14706	125.77736	172.66916	16.74095	165.33138	150.84119	26.13631	177.71597	151.19246	19.49984	173.04021	148.91393	3.16757	184.72862	216.17853	19.89539	171.98955	229.39583	15.01652	183.69612	239.59790	3.96059	174.59155	231.78117	2.47809	199.50356	203.79739	21.20633	214.44031	193.66226	20.41445	231.65398	208.55734	13.00109	240.68584	207.39186	7.04926	
1701	14.167	134.04088	133.21400	52.14767	141.26009	141.69116	52.52655	154.66495	159.28719	41.80332	168.46564	183.22079	35.37260	190.22533	207.97255	27.34802	211.10938	231.96436	20.40331	234.86343	258.37393	12.48383	266.08597	289.37589	6.07072	297.95364	313.77560	4.47508	141.57985	159.14601	28.71782	136.15512	173.16412	30.25602	123.23540	167.57668	18.36830	164.78343	149.77957	26.27868	177.24916	150.71297	19.78943	172.95680	148.85419	3.20621	183.42116	215.27556	19.87442	171.62967	229.29510	14.83445	183.76042	239.47585	4.47271	174.65988	231.76776	2.41491	197.83237	202.63097	21.46901	211.92766	191.41422	21.53786	228.80951	206.26207	13.27914	237.85054	203.48344	8.06395	
1702	14.175	133.44264	131.75383	52.13280	140.70351	140.29192	52.50095	153.84309	158.02266	41.86869	167.23949	182.20433	35.45951	188.80917	207.01724	27.54882	210.15471	230.62364	20.73969	233.95488	257.01981	12.81344	264.94193	288.24066	6.24719	296.57904	312.94965	4.47407	140.71223	157.40106	28.80376	134.19304	170.78314	30.02581	121.42456	162.59827	19.73966	164.28938	148.77353	26.40750	176.81071	150.23029	20.04948	172.90067	148.73117	3.27720	182.26692	214.41670	20.00969	171.34041	229.05518	14.78769	183.84683	239.29776	4.99143	174.80139	231.65871	2.31420	196.27060	201.41954	21.83928	209.26649	189.00092	22.78381	225.94200	203.48869	13.66092	234.67636	199.13297	9.35971	
1703	14.183	132.91454	130.41895	52.12348	140.21132	138.99501	52.49744	153.07961	156.83261	41.96723	166.11584	181.23506	35.61520	187.54219	205.99959	27.84376	209.33427	229.31520	21.18480	233.21741	255.68414	13.23826	263.94275	287.12253	6.45797	295.32318	312.19931	4.45633	139.91818	155.76349	28.81646	132.20789	168.34654	29.56916	120.11989	157.79723	20.86550	163.84619	147.82994	26.56597	176.38574	149.71021	20.29422	172.85551	148.53941	3.41093	181.26555	213.58327	20.25306	171.08969	228.72395	14.83644	183.93330	239.02353	5.44784	174.91541	231.49423	2.27900	194.82616	200.24750	22.31648	206.40660	186.54942	24.09258	223.19481	200.23361	14.17456	231.20688	194.31784	10.82978	
1704	14.192	132.39014	129.14949	52.08997	139.73570	137.76370	52.56215	152.39774	155.70398	42.08279	165.08987	180.28200	35.80762	186.32283	205.03796	28.20871	208.62442	228.04477	21.66981	232.60417	254.36020	13.71977	263.07324	286.00439	6.68719	294.17825	311.45279	4.45741	139.20680	154.20576	28.79964	130.19774	165.73610	28.99738	119.10056	153.19228	21.77513	163.43512	146.92953	26.74114	175.97742	149.19685	20.49531	172.82628	148.27766	3.61034	180.37756	212.77579	20.54024	170.84077	228.28413	14.94917	183.98270	238.69809	5.98676	174.90372	231.34485	2.41763	193.45081	199.07617	22.83441	203.42386	184.21034	25.38173	220.60269	196.45441	14.66808	227.41940	189.12949	12.31296	
1705	14.200	131.94693	127.93345	52.08976	139.31262	136.61514	52.69658	151.77718	154.62384	42.26434	164.13560	179.34137	36.01188	185.16144	204.08385	28.58736	207.98755	226.81279	22.13198	232.05142	253.05127	14.18912	262.30121	284.88605	6.94799	293.13156	310.67026	4.47486	138.53026	152.63570	28.80647	128.27948	162.96155	28.36088	118.22466	148.89178	22.30462	163.05322	146.06497	26.92966	175.55701	148.66508	20.67224	172.80551	147.99191	3.86146	179.57787	211.97966	20.84452	170.59050	227.77298	15.09194	184.00383	238.34084	6.54509	174.77335	231.22563	2.67342	192.14803	197.93903	23.37178	200.33330	182.02856	26.48625	218.09201	192.24062	15.07367	223.36060	183.72870	13.67717	
1706	14.208	131.51846	126.74153	52.14586	138.84169	135.45377	52.82364	151.20689	153.54436	42.45442	163.24921	178.38705	36.22550	184.04634	203.16693	28.97078	207.38046	225.60364	22.55518	231.50618	251.76352	14.59822	261.58170	283.74826	7.20152	292.17758	309.82245	4.49144	137.85814	151.02217	28.81723	126.51048	159.99101	27.67553	117.36355	144.86996	22.41064	162.67189	145.21114	27.13504	175.11810	148.12314	20.81159	172.76341	147.71834	4.13138	178.81712	211.17451	21.17429	170.34149	227.19508	15.29428	184.00250	237.96069	7.11710	174.58839	231.15048	2.98672	190.88478	196.82596	23.86380	197.23958	180.07072	27.36848	215.66133	187.66174	15.33041	219.06143	178.28558	14.73798	
1707	14.217	131.15051	125.54300	52.25755	138.41226	134.28557	52.99276	150.65828	152.45058	42.67718	162.43141	177.41791	36.45665	183.02734	202.23346	29.27583	206.78314	224.38536	22.88793	230.95363	250.45676	14.90249	260.89493	282.59152	7.39588	291.28046	308.90137	4.49463	137.16852	149.32277	28.81931	124.95319	156.87579	26.91317	116.56133	141.10977	22.03026	162.28766	144.35457	27.34559	174.65012	147.55763	20.95431	172.67610	147.46722	4.37063	178.07823	210.31003	21.45099	170.11293	226.60641	15.50874	183.98427	237.53073	7.64355	174.37054	231.04750	3.31808	189.70692	195.71268	24.31297	194.26482	178.30161	27.93390	213.13895	182.88458	15.38050	214.58553	173.02504	15.35784	
1708	14.225	130.76569	124.33577	52.45948	137.99088	133.06908	53.17221	150.11084	151.31033	42.90622	161.64650	176.40393	36.67760	182.06200	201.28606	29.52395	206.16245	223.11813	23.12313	230.37428	249.12482	15.08848	260.19550	281.36459	7.51683	290.38098	307.90054	4.49555	136.44263	147.55186	28.81402	123.65868	153.66594	26.07147	115.79440	137.56424	21.19357	161.87250	143.45692	27.53667	174.13992	146.95395	21.10299	172.56018	147.24355	4.58472	177.32925	209.35124	21.68066	169.92003	225.96463	15.77584	183.96268	237.08717	8.17037	174.36082	230.98233	3.65907	188.57968	194.53363	24.67935	191.47484	176.63594	28.20478	210.40669	178.05588	15.07835	209.96935	168.00838	15.54371	
1709	14.233	130.30750	123.09133	52.75356	137.52565	131.78928	53.35887	149.54106	150.10841	43.14027	160.87375	175.35509	36.95913	181.17047	200.26794	29.71304	205.54112	221.77866	23.28276	229.76215	247.72534	15.15293	259.45004	280.08282	7.53440	289.44763	306.81595	4.45439	135.66112	145.72363	28.80812	122.59492	150.44028	25.17075	115.06889	134.17328	20.05154	161.41364	142.49783	27.70036	173.58836	146.24800	21.26731	172.41306	147.12381	4.66381	176.59938	208.34155	21.91243	169.72400	225.22466	16.07662	183.91437	236.54617	8.65792	174.36255	231.27744	4.15661	187.52786	193.26944	24.98497	188.94681	174.99925	28.21983	207.46173	173.37590	14.42200	205.39818	163.40872	15.19368	
1710	14.242	129.78996	121.81287	53.04237	136.99257	130.42647	53.55723	148.93564	148.83348	43.36520	160.12279	174.21741	37.27979	180.26878	199.17789	29.89427	204.90071	220.33588	23.41420	229.12657	246.24020	15.16512	258.66431	278.69479	7.47884	288.42630	305.67975	4.41568	134.88223	143.91125	28.78049	121.75086	147.27510	24.24212	114.43863	130.93321	18.68821	160.89247	141.42239	27.86734	172.99608	145.44382	21.42729	172.36021	147.15234	4.55274	175.86426	207.23233	22.16040	169.52724	224.36188	16.43561	183.85999	235.89102	9.13499	174.43466	231.74648	4.81112	186.50493	191.85306	25.17978	186.76965	173.31090	28.00798	204.37119	169.06154	13.35166	201.04738	159.30594	14.34751	
1711	14.250	129.25519	120.44614	53.30326	136.38667	128.99881	53.77085	148.27173	147.46346	43.59468	159.36526	172.99292	37.64094	179.44077	197.89757	30.09078	204.25185	218.80421	23.56429	228.48737	244.65182	15.16831	257.81390	277.22794	7.40624	287.31076	304.51056	4.38766	134.09074	142.11807	28.70276	121.03593	144.24153	23.30613	113.95698	127.93857	17.06881	160.30511	140.23303	28.00288	172.28575	144.50743	21.53355	172.23689	147.23108	4.40136	175.14346	206.00171	22.43171	169.32091	223.44017	16.92921	183.76830	235.18787	9.69351	174.38969	232.21794	5.43667	185.52644	190.29897	25.31592	184.93118	171.53174	27.56928	201.34668	165.25067	12.04853	197.20265	155.85265	12.96481	
